<svg width="3795" height="751" xmlns="http://www.w3.org/2000/svg" xmlns:xlink="http://www.w3.org/1999/xlink" overflow="hidden"><defs><clipPath id="clip0"><rect x="303" y="388" width="3795" height="751"/></clipPath></defs><g clip-path="url(#clip0)" transform="translate(-303 -388)"><path d="M304 588.7C304 564.565 323.565 545 347.7 545L989.3 545C1013.43 545 1033 564.565 1033 588.7L1033 938.3C1033 962.435 1013.43 982 989.3 982L347.7 982C323.565 982 304 962.435 304 938.3Z" fill="#7F7F7F" fill-rule="evenodd"/><text fill="#FFFFFF" font-family="Calibri,Calibri_MSFontService,sans-serif" font-weight="400" font-size="83" transform="matrix(1 0 0 1 462.925 786)">Paper based</text><path d="M1106 709.2 1183.5 709.2 1183.5 673 1261 763.5 1183.5 854 1183.5 817.8 1106 817.8Z" fill="#BFBFBF" fill-rule="evenodd"/><path d="M1325 588.7C1325 564.565 1344.57 545 1368.7 545L2010.3 545C2034.43 545 2054 564.565 2054 588.7L2054 938.3C2054 962.435 2034.43 982 2010.3 982L1368.7 982C1344.57 982 1325 962.435 1325 938.3Z" fill="#7F7F7F" fill-rule="evenodd"/><text fill="#FFFFFF" font-family="Calibri,Calibri_MSFontService,sans-serif" font-weight="400" font-size="83" transform="matrix(1 0 0 1 1392.18 741)">Spreadsheets and <tspan font-size="83" x="151.938" y="91">Flat Files</tspan></text><path d="M2127 709.2 2204.5 709.2 2204.5 673 2282 763.5 2204.5 854 2204.5 817.8 2127 817.8Z" fill="#BFBFBF" fill-rule="evenodd"/><path d="M2346 588.7C2346 564.565 2365.57 545 2389.7 545L3031.3 545C3055.43 545 3075 564.565 3075 588.7L3075 938.3C3075 962.435 3055.43 982 3031.3 982L2389.7 982C2365.57 982 2346 962.435 2346 938.3Z" fill="#7F7F7F" fill-rule="evenodd"/><text fill="#FFFFFF" font-family="Calibri,Calibri_MSFontService,sans-serif" font-weight="400" font-size="83" transform="matrix(1 0 0 1 2526.77 786)">Web forms</text><path d="M3148 709.2 3225 709.2 3225 673 3302 763.5 3225 854 3225 817.8 3148 817.8Z" fill="#BFBFBF" fill-rule="evenodd"/><path d="M3367 588.7C3367 564.565 3386.57 545 3410.7 545L4052.3 545C4076.43 545 4096 564.565 4096 588.7L4096 938.3C4096 962.435 4076.43 982 4052.3 982L3410.7 982C3386.57 982 3367 962.435 3367 938.3Z" fill="#7F7F7F" fill-rule="evenodd"/><text fill="#FFFFFF" font-family="Calibri,Calibri_MSFontService,sans-serif" font-weight="400" font-size="83" transform="matrix(1 0 0 1 3647.66 786)">XBRL</text></g></svg>