<svg width="3842" height="1706" xmlns="http://www.w3.org/2000/svg" xmlns:xlink="http://www.w3.org/1999/xlink" overflow="hidden"><defs><clipPath id="clip0"><rect x="279" y="398" width="3842" height="1706"/></clipPath></defs><g clip-path="url(#clip0)" transform="translate(-279 -398)"><path d="M279 2104C705.889 1345.78 1844.39 848.195 3694.5 611.252L3670.47 398 4121 739.201 3766.58 1251 3742.56 1037.75C2073.85 1132.53 919.333 1487.95 279 2104Z" fill="#CFD5EA" fill-rule="evenodd"/><path d="M1019.5 1486.5C1019.5 1467.17 1035.39 1451.5 1055 1451.5 1074.61 1451.5 1090.5 1467.17 1090.5 1486.5 1090.5 1505.83 1074.61 1521.5 1055 1521.5 1035.39 1521.5 1019.5 1505.83 1019.5 1486.5Z" stroke="#FFFFFF" stroke-width="4.58333" stroke-miterlimit="8" fill="#4472C4" fill-rule="evenodd"/><text font-family="Calibri,Calibri_MSFontService,sans-serif" font-weight="400" font-size="69" transform="matrix(1 0 0 1 1102.66 1554)">1990s<tspan font-size="73" x="0" y="118">•</tspan><tspan font-size="73" x="61.8749" y="118">Internet</tspan><tspan font-size="73" x="0" y="235">•</tspan><tspan font-size="73" x="61.8749" y="235">Online Transactions</tspan><tspan font-size="73" x="0" y="352">•</tspan><tspan font-size="73" x="61.8749" y="352">EDI</tspan><tspan font-size="73" x="0" y="469">•</tspan><tspan font-size="73" x="61.8749" y="469">Data is critical</tspan></text><path d="M1924.5 1118.5C1924.5 1083.15 1953.15 1054.5 1988.5 1054.5 2023.85 1054.5 2052.5 1083.15 2052.5 1118.5 2052.5 1153.85 2023.85 1182.5 1988.5 1182.5 1953.15 1182.5 1924.5 1153.85 1924.5 1118.5Z" stroke="#FFFFFF" stroke-width="4.58333" stroke-miterlimit="8" fill="#4472C4" fill-rule="evenodd"/><text font-family="Calibri,Calibri_MSFontService,sans-serif" font-weight="400" font-size="105" transform="matrix(1 0 0 1 2065.38 1206)">Early 2000s<tspan font-size="83" x="0" y="151">•</tspan><tspan font-size="83" x="61.875" y="151">More complex </tspan><tspan font-size="83" x="61.875" y="252">regulations as response </tspan><tspan font-size="83" x="61.875" y="353">to melt downs </tspan><tspan font-size="83" x="0" y="481">•</tspan><tspan font-size="83" x="61.875" y="481">Smart devices and more </tspan><tspan font-size="83" x="61.875" y="582">reliance on technology</tspan><tspan font-size="83" x="0" y="710">•</tspan><tspan font-size="83" x="61.875" y="710">More Data</tspan></text><path d="M3008.5 910.5C3008.5 861.347 3048.12 821.5 3097 821.5 3145.88 821.5 3185.5 861.347 3185.5 910.5 3185.5 959.653 3145.88 999.5 3097 999.5 3048.12 999.5 3008.5 959.653 3008.5 910.5Z" stroke="#FFFFFF" stroke-width="4.58333" stroke-miterlimit="8" fill="#4472C4" fill-rule="evenodd"/><text font-family="Calibri,Calibri_MSFontService,sans-serif" font-weight="400" font-size="101" transform="matrix(1 0 0 1 3232.22 1002)">Now<tspan font-size="78" x="0" y="144">•</tspan><tspan font-size="78" x="61.875" y="144">More complex </tspan><tspan font-size="78" x="61.875" y="239">transactions</tspan><tspan font-size="78" x="0" y="362">•</tspan><tspan font-size="78" x="61.875" y="362">Big Data</tspan><tspan font-size="78" x="0" y="484">•</tspan><tspan font-size="78" x="61.875" y="484">Cloud</tspan><tspan font-size="78" x="0" y="607">•</tspan><tspan font-size="78" x="61.875" y="607">AI, Machine Learning</tspan><tspan font-size="78" x="0" y="730">•</tspan><tspan font-size="78" x="61.875" y="730">Demand for structured </tspan><tspan font-size="78" x="61.875" y="825">data</tspan><tspan font-size="78" x="0" y="947">•</tspan><tspan font-size="78" x="61.875" y="947">Even More Data!</tspan></text></g></svg>