<svg width="3810" height="750" xmlns="http://www.w3.org/2000/svg" xmlns:xlink="http://www.w3.org/1999/xlink" overflow="hidden"><defs><clipPath id="clip0"><rect x="289" y="509" width="3810" height="750"/></clipPath></defs><g clip-path="url(#clip0)" transform="translate(-289 -509)"><rect x="304.5" y="557.5" width="858" height="210" stroke="#A5A5A5" stroke-width="4.58333" stroke-miterlimit="8" fill="#A5A5A5"/><text fill="#FFFFFF" font-family="Calibri,Calibri_MSFontService,sans-serif" font-weight="400" font-size="73" transform="matrix(1 0 0 1 454.259 683)">Machine<tspan font-size="73" x="259.188" y="0">-</tspan><tspan font-size="73" x="281.646" y="0">Readable</tspan></text><rect x="304.5" y="767.5" width="858" height="444" stroke="#E1E1E1" stroke-width="4.58333" stroke-miterlimit="8" stroke-opacity="0.901961" fill="#E1E1E1" fill-opacity="0.901961"/><text font-family="Calibri,Calibri_MSFontService,sans-serif" font-weight="400" font-size="73" transform="matrix(1 0 0 1 334.727 859)">•<tspan font-size="73" x="61.875" y="0">Automation</tspan><tspan font-size="73" x="0" y="94">•</tspan><tspan font-size="73" x="61.875" y="94">Validation</tspan><tspan font-size="73" x="0" y="188">•</tspan><tspan font-size="73" x="61.875" y="188">Analytics</tspan><tspan font-size="73" x="0" y="282">•</tspan><tspan font-size="73" x="61.875" y="282">Time and cost savings</tspan></text><rect x="1282.5" y="557.5" width="858" height="210" stroke="#A5A5A5" stroke-width="4.58333" stroke-miterlimit="8" fill="#A5A5A5"/><text fill="#FFFFFF" font-family="Calibri,Calibri_MSFontService,sans-serif" font-weight="400" font-size="73" transform="matrix(1 0 0 1 1480.68 683)">Interoperability</text><rect x="1282.5" y="767.5" width="858" height="444" stroke="#E1E1E1" stroke-width="4.58333" stroke-miterlimit="8" stroke-opacity="0.901961" fill="#E1E1E1" fill-opacity="0.901961"/><text font-family="Calibri,Calibri_MSFontService,sans-serif" font-weight="400" font-size="73" transform="matrix(1 0 0 1 1312.79 859)">•<tspan font-size="73" x="61.875" y="0">XBRL is system </tspan><tspan font-size="73" x="61.875" y="80">independent</tspan></text><rect x="2260.5" y="557.5" width="858" height="210" stroke="#A5A5A5" stroke-width="4.58333" stroke-miterlimit="8" fill="#A5A5A5"/><text fill="#FFFFFF" font-family="Calibri,Calibri_MSFontService,sans-serif" font-weight="400" font-size="73" transform="matrix(1 0 0 1 2337.19 642)">Unambiguous, reusable <tspan font-size="73" x="193.738" y="80">definitions</tspan></text><rect x="2260.5" y="767.5" width="858" height="444" stroke="#E1E1E1" stroke-width="4.58333" stroke-miterlimit="8" stroke-opacity="0.901961" fill="#E1E1E1" fill-opacity="0.901961"/><text font-family="Calibri,Calibri_MSFontService,sans-serif" font-weight="400" font-size="73" transform="matrix(1 0 0 1 2290.86 859)">•<tspan font-size="73" x="61.875" y="0">Standardized reporting</tspan><tspan font-size="73" x="0" y="94">•</tspan><tspan font-size="73" x="61.875" y="94">Flexibility</tspan><tspan font-size="73" x="0" y="188">•</tspan><tspan font-size="73" x="61.875" y="188">Supports different views</tspan></text><rect x="3238.5" y="557.5" width="858" height="210" stroke="#A5A5A5" stroke-width="4.58333" stroke-miterlimit="8" fill="#A5A5A5"/><text fill="#FFFFFF" font-family="Calibri,Calibri_MSFontService,sans-serif" font-weight="400" font-size="73" transform="matrix(1 0 0 1 3405.58 683)">Multidimensional</text><rect x="3238.5" y="767.5" width="858" height="444" stroke="#E1E1E1" stroke-width="4.58333" stroke-miterlimit="8" stroke-opacity="0.901961" fill="#E1E1E1" fill-opacity="0.901961"/><text font-family="Calibri,Calibri_MSFontService,sans-serif" font-weight="400" font-size="73" transform="matrix(1 0 0 1 3268.92 859)">•<tspan font-size="73" x="61.875" y="0">Expresses complex </tspan><tspan font-size="73" x="61.875" y="80">information adequately</tspan></text></g></svg>