<svg width="3808" height="750" xmlns="http://www.w3.org/2000/svg" xmlns:xlink="http://www.w3.org/1999/xlink" overflow="hidden"><defs><clipPath id="clip0"><rect x="291" y="509" width="3808" height="750"/></clipPath></defs><g clip-path="url(#clip0)" transform="translate(-291 -509)"><rect x="304.5" y="519.5" width="858" height="183" stroke="#A5A5A5" stroke-width="4.58333" stroke-miterlimit="8" fill="#A5A5A5"/><text fill="#FFFFFF" font-family="Calibri,Calibri_MSFontService,sans-serif" font-weight="400" font-size="64" transform="matrix(1 0 0 1 489.092 628)">Machine<tspan font-size="64" x="226.806" y="0">-</tspan>Readable</text><rect x="304.5" y="702.5" width="858" height="546" stroke="#E1E1E1" stroke-width="4.58333" stroke-miterlimit="8" stroke-opacity="0.901961" fill="#E1E1E1" fill-opacity="0.901961"/><text font-family="Calibri,Calibri_MSFontService,sans-serif" font-weight="400" font-size="64" transform="matrix(1 0 0 1 330.877 782)">•<tspan font-size="64" x="41.25" y="0">Automation</tspan><tspan font-size="64" x="0" y="83">•</tspan><tspan font-size="64" x="41.25" y="83">Validation</tspan><tspan font-size="64" x="0" y="165">•</tspan><tspan font-size="64" x="41.25" y="165">Analytics</tspan><tspan font-size="64" x="0" y="247">•</tspan><tspan font-size="64" x="41.25" y="247">Time and cost savings</tspan></text><rect x="1282.5" y="519.5" width="858" height="183" stroke="#A5A5A5" stroke-width="4.58333" stroke-miterlimit="8" fill="#A5A5A5"/><text fill="#FFFFFF" font-family="Calibri,Calibri_MSFontService,sans-serif" font-weight="400" font-size="64" transform="matrix(1 0 0 1 1509.44 628)">Interoperability</text><rect x="1282.5" y="702.5" width="858" height="546" stroke="#E1E1E1" stroke-width="4.58333" stroke-miterlimit="8" stroke-opacity="0.901961" fill="#E1E1E1" fill-opacity="0.901961"/><text font-family="Calibri,Calibri_MSFontService,sans-serif" font-weight="400" font-size="64" transform="matrix(1 0 0 1 1308.94 782)">•<tspan font-size="64" x="41.25" y="0">XBRL is system independent</tspan></text><rect x="2260.5" y="519.5" width="858" height="183" stroke="#A5A5A5" stroke-width="4.58333" stroke-miterlimit="8" fill="#A5A5A5"/><text fill="#FFFFFF" font-family="Calibri,Calibri_MSFontService,sans-serif" font-weight="400" font-size="64" transform="matrix(1 0 0 1 2381.16 593)">Unambiguous, reusable <tspan font-size="64" x="169.537" y="71">definitions</tspan></text><rect x="2260.5" y="702.5" width="858" height="546" stroke="#E1E1E1" stroke-width="4.58333" stroke-miterlimit="8" stroke-opacity="0.901961" fill="#E1E1E1" fill-opacity="0.901961"/><text font-family="Calibri,Calibri_MSFontService,sans-serif" font-weight="400" font-size="64" transform="matrix(1 0 0 1 2287.01 782)">•<tspan font-size="64" x="41.25" y="0">Standardized reporting</tspan><tspan font-size="64" x="0" y="83">•</tspan><tspan font-size="64" x="41.25" y="83">Flexibility</tspan><tspan font-size="64" x="0" y="165">•</tspan><tspan font-size="64" x="41.25" y="165">Supports different views</tspan><tspan font-size="64" x="0" y="247">•</tspan><tspan font-size="64" x="41.25" y="247">Common set of rule, </tspan><tspan font-size="64" x="41.25" y="317">common language.</tspan></text><rect x="3238.5" y="519.5" width="858" height="183" stroke="#A5A5A5" stroke-width="4.58333" stroke-miterlimit="8" fill="#A5A5A5"/><text fill="#FFFFFF" font-family="Calibri,Calibri_MSFontService,sans-serif" font-weight="400" font-size="64" transform="matrix(1 0 0 1 3438.23 628)">Multidimensional</text><rect x="3238.5" y="702.5" width="858" height="546" stroke="#E1E1E1" stroke-width="4.58333" stroke-miterlimit="8" stroke-opacity="0.901961" fill="#E1E1E1" fill-opacity="0.901961"/><text font-family="Calibri,Calibri_MSFontService,sans-serif" font-weight="400" font-size="64" transform="matrix(1 0 0 1 3265.07 782)">•<tspan font-size="64" x="41.25" y="0">Expresses complex </tspan><tspan font-size="64" x="41.25" y="71">information adequately</tspan></text></g></svg>