<svg width="3169" height="1548" xmlns="http://www.w3.org/2000/svg" xmlns:xlink="http://www.w3.org/1999/xlink" overflow="hidden"><defs><clipPath id="clip0"><rect x="662" y="540" width="3169" height="1548"/></clipPath></defs><g clip-path="url(#clip0)" transform="translate(-662 -540)"><path d="M719.5 1926.8C719.5 1920.01 725.006 1914.5 731.799 1914.5L3749.2 1914.5C3755.99 1914.5 3761.5 1920.01 3761.5 1926.8L3761.5 2025.2C3761.5 2031.99 3755.99 2037.5 3749.2 2037.5L731.799 2037.5C725.006 2037.5 719.5 2031.99 719.5 2025.2Z" stroke="#FFFFFF" stroke-width="4.58333" stroke-miterlimit="8" fill="#595959" fill-rule="evenodd"/><text fill="#FFFFFF" font-family="Calibri,Calibri_MSFontService,sans-serif" font-weight="400" font-size="64" transform="matrix(1 0 0 1 2182.48 1993)">XML</text><path d="M719.5 1782.9C719.5 1776.05 725.051 1770.5 731.899 1770.5L3749.1 1770.5C3755.95 1770.5 3761.5 1776.05 3761.5 1782.9L3761.5 1882.1C3761.5 1888.95 3755.95 1894.5 3749.1 1894.5L731.899 1894.5C725.051 1894.5 719.5 1888.95 719.5 1882.1Z" stroke="#FFFFFF" stroke-width="4.58333" stroke-miterlimit="8" fill="#595959" fill-rule="evenodd"/><text fill="#FFFFFF" font-family="Calibri,Calibri_MSFontService,sans-serif" font-weight="400" font-size="64" transform="matrix(1 0 0 1 1989.33 1850)">XBRL Specifications<tspan fill="#595959" font-weight="700" font-size="64" x="115.294" y="-144">Taxonomy</tspan></text><path d="M719.5 1500.8C719.5 1494.01 725.007 1488.5 731.8 1488.5L1707.2 1488.5C1713.99 1488.5 1719.5 1494.01 1719.5 1500.8L1719.5 1599.2C1719.5 1605.99 1713.99 1611.5 1707.2 1611.5L731.8 1611.5C725.007 1611.5 719.5 1605.99 719.5 1599.2Z" stroke="#FFFFFF" stroke-width="4.58333" stroke-miterlimit="8" fill="#7F7F7F" fill-rule="evenodd"/><text fill="#FFFFFF" font-family="Calibri,Calibri_MSFontService,sans-serif" font-weight="400" font-size="64" transform="matrix(1 0 0 1 958.149 1567)">Imported Taxonomy</text><path d="M1740.5 1500.8C1740.5 1494.01 1746.01 1488.5 1752.8 1488.5L2728.2 1488.5C2734.99 1488.5 2740.5 1494.01 2740.5 1500.8L2740.5 1599.2C2740.5 1605.99 2734.99 1611.5 2728.2 1611.5L1752.8 1611.5C1746.01 1611.5 1740.5 1605.99 1740.5 1599.2Z" stroke="#FFFFFF" stroke-width="4.58333" stroke-miterlimit="8" fill="#7F7F7F" fill-rule="evenodd"/><text fill="#FFFFFF" font-family="Calibri,Calibri_MSFontService,sans-serif" font-weight="400" font-size="64" transform="matrix(1 0 0 1 2030.05 1567)">Type Definitions</text><path d="M2761.5 1500.8C2761.5 1494.01 2767.01 1488.5 2773.8 1488.5L3749.2 1488.5C3755.99 1488.5 3761.5 1494.01 3761.5 1500.8L3761.5 1599.2C3761.5 1605.99 3755.99 1611.5 3749.2 1611.5L2773.8 1611.5C2767.01 1611.5 2761.5 1605.99 2761.5 1599.2Z" stroke="#FFFFFF" stroke-width="4.58333" stroke-miterlimit="8" fill="#7F7F7F" fill-rule="evenodd"/><text fill="#FFFFFF" font-family="Calibri,Calibri_MSFontService,sans-serif" font-weight="400" font-size="64" transform="matrix(1 0 0 1 3122.21 1567)">Extensions</text><path d="M719.5 1357.7C719.5 1350.96 724.962 1345.5 731.699 1345.5L3749.3 1345.5C3756.04 1345.5 3761.5 1350.96 3761.5 1357.7L3761.5 1455.3C3761.5 1462.04 3756.04 1467.5 3749.3 1467.5L731.699 1467.5C724.962 1467.5 719.5 1462.04 719.5 1455.3Z" stroke="#FFFFFF" stroke-width="4.58333" stroke-miterlimit="8" fill="#7F7F7F" fill-rule="evenodd"/><text fill="#FFFFFF" font-family="Calibri,Calibri_MSFontService,sans-serif" font-weight="400" font-size="64" transform="matrix(1 0 0 1 2106.25 1424)">Dictionary</text><path d="M719.5 1219.7C719.5 1212.96 724.962 1207.5 731.7 1207.5L2167.3 1207.5C2174.04 1207.5 2179.5 1212.96 2179.5 1219.7L2179.5 1317.3C2179.5 1324.04 2174.04 1329.5 2167.3 1329.5L731.7 1329.5C724.962 1329.5 719.5 1324.04 719.5 1317.3Z" stroke="#FFFFFF" stroke-width="4.58333" stroke-miterlimit="8" fill="#7F7F7F" fill-rule="evenodd"/><text fill="#FFFFFF" font-family="Calibri,Calibri_MSFontService,sans-serif" font-weight="400" font-size="64" transform="matrix(1 0 0 1 1323.42 1286)">Linkbases</text><path d="M2301.5 1219.7C2301.5 1212.96 2306.96 1207.5 2313.7 1207.5L3749.3 1207.5C3756.04 1207.5 3761.5 1212.96 3761.5 1219.7L3761.5 1317.3C3761.5 1324.04 3756.04 1329.5 3749.3 1329.5L2313.7 1329.5C2306.96 1329.5 2301.5 1324.04 2301.5 1317.3Z" stroke="#FFFFFF" stroke-width="4.58333" stroke-miterlimit="8" fill="#7F7F7F" fill-rule="evenodd"/><text fill="#FFFFFF" font-family="Calibri,Calibri_MSFontService,sans-serif" font-weight="400" font-size="64" transform="matrix(1 0 0 1 2815.94 1286)">Other Resources<tspan fill="#595959" font-weight="700" font-size="64" x="-781.46" y="-211">Report Package</tspan></text><path d="M720.5 879.2C720.5 872.738 725.738 867.5 732.2 867.5L3749.8 867.5C3756.26 867.5 3761.5 872.738 3761.5 879.2L3761.5 972.8C3761.5 979.262 3756.26 984.5 3749.8 984.5L732.2 984.5C725.738 984.5 720.5 979.262 720.5 972.8Z" stroke="#FFFFFF" stroke-width="4.58333" stroke-miterlimit="8" fill="#BFBFBF" fill-rule="evenodd"/><text fill="#595959" font-family="Calibri,Calibri_MSFontService,sans-serif" font-weight="400" font-size="64" transform="matrix(1 0 0 1 1417.31 943)">Report Specific Taxonomy Extensions and <tspan font-size="64" x="1087.37" y="0">Linkbases</tspan><tspan font-size="64" x="1353.02" y="0">(if allowed)</tspan></text><path d="M720.5 748.2C720.5 741.738 725.738 736.5 732.2 736.5L3749.8 736.5C3756.26 736.5 3761.5 741.738 3761.5 748.2L3761.5 841.8C3761.5 848.262 3756.26 853.5 3749.8 853.5L732.2 853.5C725.738 853.5 720.5 848.262 720.5 841.8Z" stroke="#FFFFFF" stroke-width="4.58333" stroke-miterlimit="8" fill="#BFBFBF" fill-rule="evenodd"/><text fill="#595959" font-family="Calibri,Calibri_MSFontService,sans-serif" font-weight="400" font-size="64" transform="matrix(1 0 0 1 1943.33 812)">XBRL Instance (Report)</text><path d="M720.5 616.2C720.5 609.738 725.738 604.5 732.2 604.5L3749.8 604.5C3756.26 604.5 3761.5 609.738 3761.5 616.2L3761.5 709.8C3761.5 716.262 3756.26 721.5 3749.8 721.5L732.2 721.5C725.738 721.5 720.5 716.262 720.5 709.8Z" stroke="#FFFFFF" stroke-width="4.58333" stroke-miterlimit="8" fill="#BFBFBF" fill-rule="evenodd"/><text fill="#595959" font-family="Calibri,Calibri_MSFontService,sans-serif" font-weight="400" font-size="64" transform="matrix(1 0 0 1 1915.4 680)">Consumer Data Model(s)</text><rect x="665.5" y="542.5" width="3163" height="574" stroke="#8FAADC" stroke-width="4.58333" stroke-miterlimit="8" fill="none"/><rect x="664.5" y="1156.5" width="3163" height="573" stroke="#8FAADC" stroke-width="4.58333" stroke-miterlimit="8" fill="none"/></g></svg>